# xmcd
#
# Track frame offsets:
#	150
#	11040
#	21780
#	32270
#	41685
#	49712
#	59650
#	68212
#	79800
#	88672
#	97927
#	106310
#	112090
#	121440
#
# Disc length: 1778 seconds
#
# Revision: 1
# Processed by: cddbd v1.5PL3 Copyright (c) Steve Scherf et al.
# Submitted via: audiograbber 1.82.02
#
DISCID=b406f00e
DTITLE=Johnny Cash - Fools Hall Of Fame
DYEAR=1990
DGENRE=Country
TTITLE0=Fools Hall Of Fame
TTITLE1=I Just Thought You'd Like To Know
TTITLE2=You Win Again
TTITLE3=New Mexico
TTITLE4=I Can't Help It
TTITLE5=Story Of A Broken Heart
TTITLE6=I Forgot To Remember To Forget
TTITLE7=Port Of Lonely Hearts
TTITLE8=Remember Me
TTITLE9=I Couldn't Keep From Crying
TTITLE10=Always Alone
TTITLE11=My Treasure
TTITLE12=Down The Street To 301
TTITLE13=Good Night Irene
EXTD=Woodford Music WMCD 5540
EXTT0=
EXTT1=
EXTT2=
EXTT3=
EXTT4=
EXTT5=
EXTT6=
EXTT7=
EXTT8=
EXTT9=
EXTT10=
EXTT11=
EXTT12=
EXTT13=
PLAYORDER=
